Coordinates
version=1
nRows=14
nColumns=24
inDegrees=yes

Units are S.I. units (second, meters, Newtons, ...)
Angles are in degrees.

endheader
time	pelvis_tilt	pelvis_list	pelvis_rotation	pelvis_tx	pelvis_ty	pelvis_tz	hip_flexion_r	hip_adduction_r	hip_rotation_r	knee_angle_r	ankle_angle_r	subtalar_angle_r	mtp_angle_r	hip_flexion_l	hip_adduction_l	hip_rotation_l	knee_angle_l	ankle_angle_l	subtalar_angle_l	mtp_angle_l	lumbar_extension	lumbar_bending	lumbar_rotation
      0.70016667	     -2.98578599	     -5.09897201	     -4.26380805	     -0.54379203	      1.00513323	      0.32171015	     16.33333477	      9.54623864	     -0.97441390	    -17.56216950	     -0.83318440	    -15.86614299	     -5.38392698	     23.56025392	    -12.60561532	     -9.70660382	    -75.39800612	      1.65534659	    -13.75128259	      0.51766446	    -10.68355986	      6.55381450	      9.57081915
      0.70433333	     -2.96712594	     -5.03870014	     -4.35517283	     -0.53828389	      1.00616211	      0.32204311	     15.80877938	      9.51039307	     -0.81607175	    -17.27324238	     -0.72825411	    -15.85298149	     -5.38236355	     24.15484024	    -12.53487673	     -9.70205931	    -75.20619589	      1.84793788	    -13.74207112	      0.49348002	    -10.69494641	      6.46950849	      9.64144091
      0.70850000	     -2.83665609	     -5.00660557	     -4.48795882	     -0.53280546	      1.00736160	      0.32253692	     15.14324630	      9.52111873	     -0.56654631	    -16.94389966	     -0.68764098	    -15.90788459	     -5.38620397	     24.58642542	    -12.52953235	     -9.76455762	    -74.93838999	      2.13721018	    -13.52868289	      0.35235684	    -10.86521811	      6.36653447	      9.98701579
      0.71266667	     -2.82966633	     -4.93870306	     -4.57842005	     -0.52730376	      1.00832536	      0.32282283	     14.63167063	      9.46877101	     -0.41052857	    -16.65023871	     -0.60485379	    -15.89363089	     -5.38681417	     25.15824007	    -12.44221541	     -9.78803392	    -74.60133077	      2.33687947	    -13.56599134	      0.32978912	    -10.86415741	      6.28695824	     10.03386223
      0.71683333	     -2.59757124	     -4.84103411	     -4.75901170	     -0.52178156	      1.00975402	      0.32340435	     13.84317433	      9.41052848	     -0.08391804	    -16.29440156	     -0.59627042	    -15.97050694	     -5.40723787	     25.38428433	    -12.37847181	     -9.97182260	    -74.10541581	      2.55583532	    -13.43456278	      0.15244592	    -11.14855336	      6.09624165	     10.38811341
      0.72100000	     -2.48033194	     -4.74275817	     -4.89774643	     -0.51624880	      1.01093488	      0.32382115	     13.19476413	      9.33031956	      0.15226010	    -15.96553311	     -0.55819289	    -15.98778209	     -5.43735094	     25.74668042	    -12.28414452	    -10.10886253	    -73.56229302	      2.70558057	    -13.44870496	     -0.02795207	    -11.28469029	      5.93043132	     10.55026041
      0.72516667	     -2.46439566	     -4.68374608	     -4.97778891	     -0.51071934	      1.01186055	      0.32406875	     12.65977527	      9.27292502	      0.29849888	    -15.63650822	     -0.54032795	    -15.96157330	     -5.44916309	     26.24116418	    -12.19838039	    -10.15903235	    -72.99953324	      2.90691054	    -13.44677862	     -0.08011603	    -11.29494817	      5.84933718	     10.63125089
      0.72933333	     -2.23873055	     -4.58562956	     -5.13206191	     -0.50514223	      1.01321223	      0.32458588	     11.86831826	      9.18949934	      0.57873974	    -15.26052274	     -0.49236991	    -16.01778428	     -5.49116109	     26.41189444	    -12.11969285	    -10.36646269	    -72.27903164	      3.00943148	    -13.43408928	     -0.23179147	    -11.55467386	      5.64397794	     10.86837314
      0.73350000	     -2.13117544	     -4.48999621	     -5.26059582	     -0.49955534	      1.01430985	      0.32494606	     11.22073912	      9.09388091	      0.78961580	    -14.91198835	     -0.45621492	    -16.01868666	     -5.53756525	     26.71063767	    -12.02002077	    -10.53421057	    -71.51442999	      3.12894893	    -13.44350163	     -0.36627364	    -11.66127531	      5.50108386	     11.01080233
      0.73766667	     -2.17654600	     -4.48689451	     -5.31660979	     -0.49403814	      1.01497088	      0.32515936	     10.74992130	      9.09134518	      0.91615442	    -14.58694446	     -0.36611994	    -15.97696970	     -5.54038092	     27.23079688	    -11.98985774	    -10.56731533	    -70.78544944	      3.26395251	    -13.46785543	     -0.37663124	    -11.60114851	      5.49598619	     11.04124582
      0.74183333	     -1.81079139	     -4.33227716	     -5.50648291	     -0.48836889	      1.01658185	      0.32570169	      9.78738215	      8.92045097	      1.21295865	    -14.15845691	     -0.42886855	    -16.01283123	     -5.61148536	     27.11278075	    -11.85581922	    -10.90998660	    -69.77248824	      3.33811150	    -13.48066247	     -0.52129606	    -12.00828428	      5.20867909	     11.30695062
      0.74600000	     -1.67834299	     -4.23821406	     -5.61675326	     -0.48276676	      1.01761290	      0.32605538	      9.10793528	      8.81225816	      1.40486767	    -13.79457750	     -0.38382340	    -16.04217652	     -5.67596211	     27.30966033	    -11.74942771	    -11.10170443	    -68.79809239	      3.42278039	    -13.48214919	     -0.63519533	    -12.14415763	      5.03818501	     11.45227210
      0.75016667	     -1.52088281	     -4.14880039	     -5.73849768	     -0.47713143	      1.01866799	      0.32641218	      8.39399998	      8.70133451	      1.59456074	    -13.41480968	     -0.36632863	    -16.04072936	     -5.74561085	     27.43952829	    -11.65263994	    -11.32663026	    -67.74481973	      3.50236329	    -13.48391991	     -0.74366760	    -12.29956918	      4.87544642	     11.59243976
      0.75433333	     -1.36509869	     -4.07252352	     -5.85314940	     -0.47152306	      1.01965788	      0.32676420	      7.68380795	      8.60195240	      1.79132945	    -13.03661955	     -0.34488827	    -16.02772399	     -5.81939917	     27.55320739	    -11.56598539	    -11.54745994	    -66.63897764	      3.57498158	    -13.48460195	     -0.84639867	    -12.47116748	      4.72522660	     11.73122748
